<svg width="512" height="512" viewBox="0 0 512 512" xmlns="http://www.w3.org/2000/svg">
  <defs>
    <linearGradient id="bg" x1="0" y1="0" x2="1" y2="1">
      <stop offset="0%" stop-color="#2a2818"/>
      <stop offset="100%" stop-color="#1e1c10"/>
    </linearGradient>
  </defs>
  <rect width="512" height="512" rx="112" fill="url(#bg)"/>
  <!-- row 1 -->
  <rect x="68" y="100" width="52" height="52" rx="8" fill="#6b7a40" opacity="0.5"/>
  <rect x="132" y="100" width="52" height="52" rx="8" fill="#6b7a40" opacity="0.6"/>
  <rect x="196" y="100" width="52" height="52" rx="8" fill="#6b7a40" opacity="0.7"/>
  <rect x="260" y="100" width="52" height="52" rx="8" fill="#6b7a40" opacity="0.8"/>
  <rect x="324" y="100" width="52" height="52" rx="8" fill="#6b7a40" opacity="0.9"/>
  <rect x="388" y="100" width="52" height="52" rx="8" fill="#8a9a50"/>
  <!-- row 2 -->
  <rect x="68" y="164" width="52" height="52" rx="8" fill="#8a9a50"/>
  <rect x="132" y="164" width="52" height="52" rx="8" fill="#8a9a50"/>
  <rect x="196" y="164" width="52" height="52" rx="8" fill="#8a9a50"/>
  <rect x="260" y="164" width="52" height="52" rx="8" fill="#8a9a50"/>
  <!-- 현재 주 -->
  <rect x="324" y="164" width="52" height="52" rx="8" fill="#e4dfc8"/>
  <rect x="324" y="164" width="52" height="52" rx="8" fill="none" stroke="#e4dfc8" stroke-width="3" opacity="0.4"/>
  <rect x="388" y="164" width="52" height="52" rx="8" fill="#3d3d28" opacity="0.6"/>
  <!-- row 3 -->
  <rect x="68" y="228" width="52" height="52" rx="8" fill="#3d3d28" opacity="0.5"/>
  <rect x="132" y="228" width="52" height="52" rx="8" fill="#3d3d28" opacity="0.5"/>
  <rect x="196" y="228" width="52" height="52" rx="8" fill="#3d3d28" opacity="0.5"/>
  <rect x="260" y="228" width="52" height="52" rx="8" fill="#3d3d28" opacity="0.5"/>
  <rect x="324" y="228" width="52" height="52" rx="8" fill="#3d3d28" opacity="0.5"/>
  <rect x="388" y="228" width="52" height="52" rx="8" fill="#3d3d28" opacity="0.5"/>
  <!-- row 4 -->
  <rect x="68" y="292" width="52" height="52" rx="8" fill="#2e2c1a" opacity="0.6"/>
  <rect x="132" y="292" width="52" height="52" rx="8" fill="#2e2c1a" opacity="0.6"/>
  <rect x="196" y="292" width="52" height="52" rx="8" fill="#2e2c1a" opacity="0.6"/>
  <rect x="260" y="292" width="52" height="52" rx="8" fill="#2e2c1a" opacity="0.6"/>
  <rect x="324" y="292" width="52" height="52" rx="8" fill="#2e2c1a" opacity="0.6"/>
  <rect x="388" y="292" width="52" height="52" rx="8" fill="#2e2c1a" opacity="0.6"/>
  <!-- WEEKS 텍스트 -->
  <text x="256" y="408" font-family="Georgia, serif" font-size="44" font-weight="300" fill="#b0aa88" text-anchor="middle" letter-spacing="4" opacity="0.9">WEEKS</text>
</svg>
